# Rhino

mtllib t_12.mtl
usemtl diffuse_0
v 0.5 0.5 0.5
v 0.5 0.5 -0.5
v -0.5 0.5 0.5
v -0.5 0.5 -0.5
vt 0 0
vt 0 1
vt 1 0
vt 1 1
vn 0 -1 0
vn 0 -1 0
vn 0 -1 0
vn 0 -1 0
f 4/4/4 2/2/2 1/1/1 3/3/3
usemtl diffuse_0
v 0.5 -0.5 0.5
v 0.5 0.5 0.5
v 0.5 -0.5 -0.5
v 0.5 0.5 -0.5
vt 0 0
vt 0 1
vt 1 0
vt 1 1
vn 1 0 0
vn 1 0 0
vn 1 0 0
vn 1 0 0
f 8/8/8 6/6/6 5/5/5 7/7/7
usemtl diffuse_0
v -0.5 -0.5 0.5
v 0.5 -0.5 0.5
v -0.5 0.5 0.5
v 0.5 0.5 0.5
vt 0 0
vt 0 1
vt 1 0
vt 1 1
vn 0 0 1
vn 0 0 1
vn 0 0 1
vn 0 0 1
f 12/12/12 11/11/11 9/9/9 10/10/10
usemtl diffuse_0
v 0.50000000000025446 0.49999999999974531 0.50000000000000044
v 0.50000000000025446 0.39999999999974534 0.49999999999997491
v 0.50000000000025435 0.34999999999974529 0.49999999999996225
v 0.50000000000025435 0.24999999999974531 0.49999999999993672
v 0.50000000000025435 0.19999999999974533 0.49999999999992406
v 0.50000000000025435 0.099999999999745293 0.49999999999989853
v 0.50000000000025435 0.049999999999745304 0.49999999999988587
v 0.50000000000025435 -0.05000000000025473 0.49999999999986044
v 0.50000000000025435 -0.10000000000025477 0.49999999999984768
v 0.50000000000025424 -0.20000000000025475 0.49999999999982214
v 0.50000000000025424 -0.2500000000002548 0.49999999999980949
v 0.50000000000025424 -0.35000000000025477 0.49999999999978406
v 0.50000000000025424 -0.40000000000025482 0.49999999999977129
v 0.50000000000025424 -0.50000000000025469 0.49999999999974576
cstype bspline
deg 1
curv 0 0.5 13 14 15 16 17 18 19 20 21 22 23 24 25 26
parm u 0 0 0.050000000000000003 0.075000000000000011 0.125 0.14999999999999999 0.20000000000000001 0.22500000000000001 0.27500000000000002 0.30000000000000004 0.35000000000000003 0.37500000000000006 0.42500000000000004 0.45000000000000007 0.5 0.5
end
usemtl diffuse_0
v 0.50000000000025446 0.49999999999974531 0.50000000000000044
v 0.50000000000025446 0.39999999999974534 0.49999999999997491
v 0.50000000000025435 0.34999999999974529 0.49999999999996225
v 0.50000000000025435 0.24999999999974531 0.49999999999993672
v 0.50000000000025435 0.19999999999974533 0.49999999999992406
v 0.50000000000025435 0.099999999999745293 0.49999999999989853
v 0.50000000000025435 0.049999999999745304 0.49999999999988587
v 0.50000000000025435 -0.05000000000025473 0.49999999999986044
v 0.50000000000025435 -0.10000000000025477 0.49999999999984768
v 0.50000000000025424 -0.20000000000025475 0.49999999999982214
v 0.50000000000025424 -0.2500000000002548 0.49999999999980949
v 0.50000000000025424 -0.35000000000025477 0.49999999999978406
v 0.50000000000025424 -0.40000000000025482 0.49999999999977129
v 0.50000000000025424 -0.50000000000025469 0.49999999999974576
cstype bspline
deg 1
curv 0 0.5 27 28 29 30 31 32 33 34 35 36 37 38 39 40
parm u 0 0 0.050000000000000003 0.075000000000000011 0.125 0.14999999999999999 0.20000000000000001 0.22500000000000001 0.27500000000000002 0.30000000000000004 0.35000000000000003 0.37500000000000006 0.42500000000000004 0.45000000000000007 0.5 0.5
end
